<svg width="422" height="344" viewBox="0 0 422 344" fill="none" xmlns="http://www.w3.org/2000/svg">
<path d="M162.132 271.897H90.0508V341.586H162.132V271.897Z" fill="#051D43"/>
<path d="M162.132 341.644H90.0505C90.0204 341.644 89.9902 341.615 89.9902 341.586V271.897C89.9902 271.868 90.0204 271.839 90.0505 271.839H162.132C162.162 271.839 162.192 271.868 162.192 271.897V341.586C162.192 341.629 162.162 341.644 162.132 341.644ZM90.0956 341.542H162.072V271.955H90.0956V341.542Z" fill="#051D43"/>
<path d="M242.676 300.751H28.0125C23.3897 300.751 19.4446 297.504 18.7068 293.093L0.185738 182.556C-0.747842 177.009 3.67914 171.987 9.49143 171.987H224.155C228.777 171.987 232.723 175.233 233.46 179.644L251.981 290.182C252.915 295.728 248.488 300.751 242.676 300.751Z" fill="#051D43"/>
<path d="M242.676 300.809H28.0122C23.3293 300.809 19.3992 297.563 18.6463 293.108L0.125273 182.57C-0.32646 179.906 0.456543 177.213 2.26347 175.16C4.0704 173.108 6.70551 171.928 9.4912 171.928H224.155C228.838 171.928 232.768 175.175 233.52 179.63L252.042 290.167C252.493 292.831 251.71 295.525 249.903 297.577C248.096 299.63 245.461 300.809 242.676 300.809ZM9.4912 172.045C6.73563 172.045 4.14569 173.21 2.35382 175.233C0.577006 177.257 -0.205998 179.921 0.245735 182.556L18.7668 293.093C19.5046 297.504 23.3895 300.707 28.0122 300.707H242.676C245.431 300.707 248.021 299.543 249.813 297.519C251.59 295.495 252.373 292.831 251.921 290.196L233.4 179.659C232.662 175.248 228.777 172.045 224.155 172.045H9.4912Z" fill="#051D43"/>
<path d="M28.0127 295.655C25.9649 295.655 24.2333 294.229 23.902 292.278L5.38095 181.74C5.10991 180.139 5.84774 179.018 6.31453 178.494C6.78132 177.97 7.80525 177.082 9.47666 177.082H224.14C226.188 177.082 227.919 178.508 228.251 180.459L246.772 290.997C247.043 292.598 246.305 293.719 245.838 294.243C245.371 294.767 244.347 295.655 242.676 295.655H28.0127Z" fill="#315587"/>
<path d="M41.9559 342.459H82.1299C83.199 342.459 84.0724 341.614 84.0724 340.581V333.054C84.0724 333.054 74.0439 323.359 73.5771 322.908C73.1104 322.456 65.9429 323.825 64.9792 322.908C64.0155 321.99 54.0021 318.759 54.0021 322.908C54.0021 325.615 49.1384 329.488 45.7504 331.875C43.4315 333.506 41.3536 335.398 39.5466 337.538C37.8752 339.503 39.3358 342.459 41.9559 342.459Z" fill="#051D43"/>
<path d="M221.565 263.832C211.386 274.605 201.192 285.363 191.013 296.136C162.057 304.899 133.085 313.678 104.129 322.442C99.1754 316.589 94.2214 313.008 90.7582 310.897C85.4879 307.68 83.2745 307.607 82.1602 307.665C77.8085 307.898 76.9351 310.941 71.6649 312.28C66.0032 313.722 64.7384 310.795 60.6878 312.28C55.4929 314.187 57.1041 319.152 50.1926 326.125C45.4193 330.929 40.5406 332.705 41.1278 335.354C41.444 336.81 43.2058 337.538 43.522 337.669C46.0668 338.717 49.5602 337.509 52.12 334.437C51.5026 337.655 52.9481 340.654 55.4628 341.818C56.5921 342.342 58.8508 342.925 60.2361 341.818C62.4496 340.071 59.6187 336.359 61.6666 332.123C62.9314 329.531 65.7322 327.333 68.8341 327.042C71.7703 326.78 74.0139 328.323 75.5197 329.357C79.495 332.094 81.332 337.174 82.1903 340.304C82.5065 341.469 83.6057 342.299 84.8555 342.313C130.601 342.706 176.346 341.381 222.077 341.833C229.079 330.754 236.081 319.676 243.082 308.597C235.885 293.675 228.717 278.754 221.565 263.832Z" fill="#FDC4CB"/>
<path d="M351.408 148.447H316.564V195.061H351.408V148.447Z" fill="#FDC4CB"/>
<path d="M317.513 101.832C317.663 98.6001 317.98 93.4903 321.804 89.3704C326.593 84.2169 335.537 82.0478 340.416 85.2214C343.653 87.3178 342.448 90.011 346.138 95.3683C350.821 102.152 354.916 100.944 358.545 105.981C363.319 112.619 357.973 117.176 360.458 130.438C362.716 142.477 368.062 143.788 366.661 150.28C364.794 158.971 352.853 167.59 341.364 165.508C328.686 163.208 324.108 149.276 323.702 147.966C320.81 138.663 326.322 136.771 324.183 124.892C322.256 114.162 317.046 111.877 317.513 101.832Z" fill="#051D43"/>
<path d="M317.513 98.6006C320.058 98.5861 321.925 101.425 323.717 104.133C329.785 113.333 325.764 123.815 325.147 125.358C326.216 124.659 329.649 122.577 334.212 123.043C339.076 123.538 343.969 126.799 345.189 131.356C346.755 137.193 342.162 144.618 333.73 146.583C333.986 148.592 334.061 151.635 332.781 154.896C329.514 163.136 319.5 167.736 310.827 166.892C306.536 166.469 299.022 164.388 297.938 159.962C296.974 156.075 301.823 153.702 303.193 145.652C303.795 142.143 303.374 139.639 303.193 137.805C301.762 123.305 310.074 98.6589 317.513 98.6006Z" fill="#FDC4CB"/>
<path d="M416.397 26.0439H350.851C347.93 26.0439 345.565 28.3295 345.565 31.1537V68.844C345.565 70.0523 346.002 71.2169 346.815 72.1341L365.758 93.8835C366.797 95.0627 368.769 94.1164 368.423 92.6024L363.77 72.6873C363.469 71.3916 364.493 70.1542 365.863 70.1542H416.412C419.333 70.1542 421.697 67.8686 421.697 65.0444V31.1537C421.682 28.3295 419.318 26.0439 416.397 26.0439Z" fill="#051D43"/>
<path d="M411.082 34.022H357.326C357.16 34.022 357.024 33.891 357.024 33.7308C357.024 33.5707 357.16 33.4397 357.326 33.4397H411.082C411.247 33.4397 411.383 33.5707 411.383 33.7308C411.383 33.891 411.247 34.022 411.082 34.022Z" fill="#315587"/>
<path d="M411.082 42.8001H357.326C357.16 42.8001 357.024 42.6691 357.024 42.5089C357.024 42.3488 357.16 42.2178 357.326 42.2178H411.082C411.247 42.2178 411.383 42.3488 411.383 42.5089C411.383 42.6691 411.247 42.8001 411.082 42.8001Z" fill="#315587"/>
<path d="M411.082 51.5928H357.326C357.16 51.5928 357.024 51.4618 357.024 51.3017C357.024 51.1415 357.16 51.0105 357.326 51.0105H411.082C411.247 51.0105 411.383 51.1415 411.383 51.3017C411.383 51.4618 411.247 51.5928 411.082 51.5928Z" fill="#315587"/>
<path d="M411.082 60.3858H357.326C357.16 60.3858 357.024 60.2548 357.024 60.0946C357.024 59.9345 357.16 59.8035 357.326 59.8035H411.082C411.247 59.8035 411.383 59.9345 411.383 60.0946C411.383 60.2548 411.247 60.3858 411.082 60.3858Z" fill="#315587"/>
<path d="M28.6144 10.3508H94.1608C97.082 10.3508 99.4461 12.6364 99.4461 15.4606V53.1509C99.4461 54.3592 99.0094 55.5238 98.1963 56.441L79.2537 78.205C78.2147 79.3841 76.2421 78.4379 76.5884 76.9239L81.2413 57.0087C81.5424 55.7131 80.5185 54.4757 79.1483 54.4757H28.6144C25.6932 54.4757 23.3292 52.1901 23.3292 49.3659V15.4606C23.3141 12.6364 25.6932 10.3508 28.6144 10.3508Z" fill="#051D43"/>
<path d="M87.6857 18.3289H33.9296C33.7639 18.3289 33.6284 18.1979 33.6284 18.0377C33.6284 17.8776 33.7639 17.7466 33.9296 17.7466H87.6857C87.8514 17.7466 87.9869 17.8776 87.9869 18.0377C87.9869 18.1979 87.8514 18.3289 87.6857 18.3289Z" fill="#315587"/>
<path d="M87.6857 27.1214H33.9296C33.7639 27.1214 33.6284 26.9904 33.6284 26.8302C33.6284 26.6701 33.7639 26.5391 33.9296 26.5391H87.6857C87.8514 26.5391 87.9869 26.6701 87.9869 26.8302C87.9869 26.9904 87.8514 27.1214 87.6857 27.1214Z" fill="#315587"/>
<path d="M87.6857 35.8997H33.9296C33.7639 35.8997 33.6284 35.7687 33.6284 35.6085C33.6284 35.4484 33.7639 35.3174 33.9296 35.3174H87.6857C87.8514 35.3174 87.9869 35.4484 87.9869 35.6085C87.9869 35.7687 87.8514 35.8997 87.6857 35.8997Z" fill="#315587"/>
<path d="M87.6857 44.6929H33.9296C33.7639 44.6929 33.6284 44.5619 33.6284 44.4018C33.6284 44.2416 33.7639 44.1106 33.9296 44.1106H87.6857C87.8514 44.1106 87.9869 44.2416 87.9869 44.4018C87.9869 44.5619 87.8514 44.6929 87.6857 44.6929Z" fill="#315587"/>
<path d="M119.578 126.319H104.249V188.058H119.578V126.319Z" fill="#C6C6C6"/>
<path d="M98.6775 245.372H121.535C122.845 245.372 123.899 244.353 123.899 243.087V183.633H96.3135V243.087C96.3135 244.339 97.3675 245.372 98.6775 245.372Z" fill="#C6C6C6"/>
<path d="M162.191 111.994C162.191 134.631 140.463 152.988 113.645 152.988C99.1593 152.988 86.1644 147.631 77.2653 139.129C69.6912 131.894 65.0986 122.388 65.0986 111.979C65.0986 89.3416 86.827 70.9841 113.645 70.9841C131.217 70.9841 146.606 78.8745 155.129 90.6809C159.601 96.8971 162.191 104.191 162.191 111.994Z" fill="#DDDDDD"/>
<path d="M172.626 165.901L164.661 198.598L163.23 204.436L159.36 218.004C157.433 224.788 150.115 229.563 141.713 229.563H83.8458C75.4285 229.563 68.1255 224.773 66.183 218.004L60.6719 198.642L60.6568 198.613L52.6913 165.916C52.0137 163.106 54.2121 160.413 57.1935 160.413H168.139C171.105 160.398 173.319 163.092 172.626 165.901Z" fill="#DDDDDD"/>
<path d="M164.902 198.599L163.246 204.436L159.376 218.004C157.448 224.788 150.13 229.563 141.728 229.563H83.8462C75.4289 229.563 68.1259 224.774 66.1834 218.004L60.6723 198.642L60.6572 198.613H90.4113V208.833H134.681V198.613H164.902V198.599Z" fill="#051D43"/>
<path d="M141.713 229.607H83.8463C79.7657 229.607 75.7603 228.457 72.553 226.36C69.3457 224.264 67.072 221.294 66.1234 218.004L60.5972 198.599C60.5972 198.584 60.5972 198.569 60.6122 198.555C60.6273 198.54 60.6423 198.54 60.6574 198.54H90.4115C90.4416 198.54 90.4717 198.569 90.4717 198.599V208.76H134.636V198.599C134.636 198.569 134.666 198.54 134.696 198.54H164.917C164.932 198.54 164.947 198.555 164.962 198.555C164.978 198.569 164.978 198.584 164.978 198.599L159.451 218.004C158.518 221.294 156.229 224.264 153.037 226.36C149.799 228.457 145.794 229.607 141.713 229.607ZM60.7327 198.642L66.2438 217.975C68.1863 224.759 75.4291 229.505 83.8463 229.505H141.713C150.146 229.505 157.373 224.759 159.316 217.975L164.827 198.642H134.742V208.804C134.742 208.833 134.711 208.862 134.681 208.862H90.4115C90.3814 208.862 90.3513 208.833 90.3513 208.804V198.642H60.7327Z" fill="#051D43"/>
<path d="M162.191 111.994C162.191 134.631 140.463 152.988 113.645 152.988C99.1591 152.988 86.1643 147.631 77.2651 139.129C104.866 147.981 132.798 140.935 146.35 122.854C155.415 110.756 155.55 97.0427 155.144 90.6809C159.601 96.8971 162.191 104.191 162.191 111.994Z" fill="#C6C6C6"/>
<path d="M65.2492 127.629C69.083 127.629 72.1909 121.215 72.1909 113.304C72.1909 105.392 69.083 98.9788 65.2492 98.9788C61.4155 98.9788 58.3076 105.392 58.3076 113.304C58.3076 121.215 61.4155 127.629 65.2492 127.629Z" fill="#051D43"/>
<path d="M65.2494 127.687C61.3946 127.687 58.2476 121.238 58.2476 113.304C58.2476 105.37 61.3946 98.9207 65.2494 98.9207C69.1042 98.9207 72.2513 105.37 72.2513 113.304C72.2513 121.238 69.1042 127.687 65.2494 127.687ZM65.2494 99.0371C61.4549 99.0371 58.353 105.443 58.353 113.304C58.353 121.165 61.4398 127.57 65.2494 127.57C69.059 127.57 72.1459 121.165 72.1459 113.304C72.1459 105.443 69.044 99.0371 65.2494 99.0371Z" fill="#051D43"/>
<path d="M65.2498 120.874C67.2789 120.874 68.9239 117.484 68.9239 113.303C68.9239 109.123 67.2789 105.733 65.2498 105.733C63.2206 105.733 61.5757 109.123 61.5757 113.303C61.5757 117.484 63.2206 120.874 65.2498 120.874Z" fill="#DDDDDD"/>
<path d="M161.59 127.629C165.423 127.629 168.531 121.215 168.531 113.304C168.531 105.392 165.423 98.9788 161.59 98.9788C157.756 98.9788 154.648 105.392 154.648 113.304C154.648 121.215 157.756 127.629 161.59 127.629Z" fill="#051D43"/>
<path d="M161.589 127.687C157.734 127.687 154.587 121.238 154.587 113.304C154.587 105.37 157.734 98.9207 161.589 98.9207C165.444 98.9207 168.591 105.37 168.591 113.304C168.591 121.238 165.444 127.687 161.589 127.687ZM161.589 99.0371C157.795 99.0371 154.693 105.443 154.693 113.304C154.693 121.165 157.78 127.57 161.589 127.57C165.399 127.57 168.486 121.165 168.486 113.304C168.486 105.443 165.384 99.0371 161.589 99.0371Z" fill="#051D43"/>
<path d="M161.589 120.874C163.618 120.874 165.263 117.484 165.263 113.303C165.263 109.123 163.618 105.733 161.589 105.733C159.56 105.733 157.915 109.123 157.915 113.303C157.915 117.484 159.56 120.874 161.589 120.874Z" fill="#DDDDDD"/>
<path d="M140.223 139.188H85.9098C83.2897 139.188 81.1816 137.135 81.1816 134.617V98.0909C81.1816 95.5579 83.3048 93.5198 85.9098 93.5198H140.223C142.843 93.5198 144.951 95.5724 144.951 98.0909V134.602C144.951 137.135 142.828 139.188 140.223 139.188Z" fill="#051D43"/>
<path d="M91.5551 113.959C91.4647 113.959 91.3744 113.944 91.284 113.901C90.8925 113.755 90.7118 113.333 90.8624 112.954C92.2778 109.504 95.6658 107.262 99.4905 107.233C99.5056 107.233 99.5206 107.233 99.5357 107.233C103.27 107.233 106.628 109.373 108.119 112.721C108.284 113.085 108.104 113.522 107.727 113.682C107.351 113.842 106.899 113.668 106.733 113.304C105.499 110.509 102.668 108.703 99.5357 108.703C99.5206 108.703 99.5056 108.703 99.4905 108.703C96.3284 108.718 93.4222 110.654 92.2477 113.508C92.1423 113.784 91.8562 113.959 91.5551 113.959Z" fill="#DDDDDD"/>
<path d="M118.96 113.959C118.87 113.959 118.78 113.945 118.689 113.901C118.298 113.755 118.117 113.333 118.268 112.955C119.683 109.505 123.071 107.263 126.896 107.234C130.585 107.19 134.033 109.359 135.524 112.722C135.69 113.086 135.509 113.523 135.132 113.683C134.756 113.843 134.304 113.668 134.139 113.304C132.904 110.509 130.073 108.704 126.941 108.704C126.926 108.704 126.911 108.704 126.896 108.704C123.734 108.718 120.828 110.655 119.653 113.508C119.548 113.785 119.261 113.959 118.96 113.959Z" fill="#DDDDDD"/>
<path d="M211.055 185.612C211.793 185.103 212.711 184.593 213.825 184.171C217.228 182.861 220.36 183.196 222.002 183.502C223.372 182.948 224.351 182.322 224.998 181.827C225.736 181.26 226.278 180.706 227.302 180.488C227.558 180.43 228.612 180.197 229.034 180.706C229.305 181.027 229.199 181.507 229.154 181.711C228.838 183.079 227.392 183.895 225.585 185.045C222.514 187.01 223.161 186.893 222.137 187.388C219.367 188.699 214.759 189.456 212.229 187.17C211.612 186.631 211.265 186.035 211.055 185.612Z" fill="#C6C6C6"/>
<path d="M210.257 186.501C211.205 185.889 212.771 185.045 214.865 184.608C215.678 184.433 217.093 184.229 218.78 184.39C223.568 184.826 224.667 187.68 227.995 187.287C228.1 187.272 229.365 186.69 231.91 185.511C232.316 185.321 236.006 183.603 239.168 183.4C239.589 183.371 240.297 183.356 240.553 183.735C240.839 184.171 240.372 184.914 240.207 185.176C237.286 189.849 232.03 191.96 232.03 191.96C223.402 195.454 212.365 191.407 210.618 190.737C210.483 189.325 210.362 187.913 210.257 186.501Z" fill="#DDDDDD"/>
<path d="M178.499 196.109L180.848 201.597L207.123 191.086C207.62 190.883 207.846 190.344 207.65 189.864L206.039 186.108C205.828 185.627 205.271 185.409 204.774 185.598L178.499 196.109Z" fill="#DDDDDD"/>
<path d="M172.521 198.089L176.466 196.691C176.963 196.516 177.219 195.978 177.039 195.483L167.567 170.56C167.387 170.079 166.829 169.832 166.317 170.006L162.372 171.404C161.875 171.579 161.619 172.117 161.8 172.612L171.271 197.535C171.452 198.016 172.009 198.263 172.521 198.089Z" fill="#DDDDDD"/>
<path d="M176.225 205.906C179.984 205.906 183.031 202.96 183.031 199.326C183.031 195.692 179.984 192.746 176.225 192.746C172.466 192.746 169.419 195.692 169.419 199.326C169.419 202.96 172.466 205.906 176.225 205.906Z" fill="#C6C6C6"/>
<path d="M206.883 194.231C210.642 194.231 213.689 191.285 213.689 187.65C213.689 184.016 210.642 181.07 206.883 181.07C203.124 181.07 200.077 184.016 200.077 187.65C200.077 191.285 203.124 194.231 206.883 194.231Z" fill="#C6C6C6"/>
<path d="M399.999 342.299C401.911 342.284 403.477 340.814 403.522 338.965C403.763 329.867 404.336 317.361 405.841 302.585C409.244 268.898 413.084 266.06 412.045 251.356C411.669 246.086 408.16 205.018 377.201 188.583C360.066 179.484 341.831 181.813 328.505 183.502C323.129 184.186 306.656 186.676 285.063 198.278C250.942 216.607 229.771 243.83 218.131 262.274C216.987 264.094 216.882 266.336 217.83 268.258L235.568 303.764C236.366 305.351 236.366 307.215 235.553 308.801C230.599 318.613 225.645 328.44 220.706 338.252C219.562 340.537 221.278 343.187 223.914 343.172C282.609 342.896 341.304 342.59 399.999 342.299Z" fill="#CFDFF7"/>
<path d="M292.848 47.0948C291.644 40.6602 289.023 34.706 285.319 29.5234L292.171 21.0216L282.217 11.3989L273.424 18.0227C268.063 14.4415 261.904 11.9084 255.249 10.7438L253.879 0.0583496H239.8L238.429 10.7438C231.774 11.9084 225.615 14.4415 220.255 18.0227L211.461 11.3989L201.508 21.0216L208.359 29.5234C204.655 34.706 202.035 40.6602 200.83 47.0948L189.778 48.4195V62.0311L200.83 63.3559C202.035 69.7904 204.655 75.7446 208.359 80.9272L201.508 89.429L211.461 99.0517L220.255 92.4279C225.615 96.0091 231.774 98.5422 238.429 99.7068L239.8 110.392H253.879L255.249 99.7068C261.904 98.5422 268.063 96.0091 273.424 92.4279L282.217 99.0517L292.171 89.429L285.319 80.9272C289.023 75.7446 291.644 69.7904 292.848 63.3559L303.901 62.0311V48.4195L292.848 47.0948ZM246.862 77.0839C234.364 77.0839 224.245 67.301 224.245 55.218C224.245 43.135 234.364 33.3521 246.862 33.3521C259.36 33.3521 269.479 43.135 269.479 55.218C269.479 67.301 259.36 77.0839 246.862 77.0839Z" fill="#051D43"/>
<path d="M253.969 110.436H239.754L238.384 99.7358C231.849 98.5857 225.766 96.14 220.285 92.486L211.491 99.1244L201.447 89.4143L201.493 89.3706L208.314 80.9125C204.534 75.6135 202.005 69.7175 200.815 63.414L189.748 62.0892V48.3466L200.815 47.0219C202.005 40.7037 204.534 34.8224 208.314 29.5233L201.447 21.0215L211.491 11.3114L211.536 11.3551L220.285 17.9498C225.766 14.2812 231.864 11.8501 238.384 10.7L239.754 0H253.969L255.339 10.7C261.874 11.8501 267.958 14.2958 273.439 17.9498L282.232 11.3114L292.276 21.0215L292.231 21.0652L285.409 29.5233C289.204 34.8224 291.719 40.7183 292.908 47.0219L303.976 48.3466V62.0892L292.908 63.414C291.719 69.7321 289.189 75.6135 285.409 80.9125L292.276 89.4143L282.232 99.1244L282.187 99.0807L273.439 92.486C267.958 96.1546 261.859 98.5857 255.339 99.7358L253.969 110.436ZM239.89 110.29H253.833L255.204 99.6048L255.264 99.5902C261.814 98.4402 267.912 95.9944 273.408 92.3259L273.454 92.2968L282.232 98.9206L292.095 89.3852L285.244 80.898L285.274 80.8543C289.068 75.5407 291.613 69.6447 292.788 63.3121L292.803 63.2538H292.863L303.855 61.9436V48.4631L292.803 47.1383L292.788 47.0801C291.598 40.7474 289.068 34.8515 285.274 29.5379L285.244 29.4942L292.095 21.007L282.232 11.4716L273.454 18.0954L273.408 18.0663C267.912 14.3832 261.814 11.9374 255.264 10.7874L255.204 10.7728V10.7146L253.848 0.0873435H239.905L238.535 10.7728L238.474 10.7874C231.924 11.9374 225.826 14.3832 220.33 18.0663L220.285 18.0954L211.506 11.4716L201.643 21.007L208.494 29.4942L208.464 29.5379C204.655 34.8515 202.125 40.7474 200.951 47.0801L200.935 47.1383H200.875L189.883 48.4485V61.9291L200.935 63.2538L200.951 63.3121C202.14 69.6447 204.67 75.5407 208.464 80.8543L208.494 80.898L201.643 89.3852L211.506 98.9206L220.285 92.2968L220.33 92.3259C225.826 96.009 231.924 98.4547 238.474 99.5902L238.535 99.6048V99.663L239.89 110.29ZM246.862 77.1566C234.349 77.1566 224.17 67.3155 224.17 55.2179C224.17 43.1203 234.349 33.2792 246.862 33.2792C259.375 33.2792 269.554 43.1203 269.554 55.2179C269.554 67.3155 259.375 77.1566 246.862 77.1566ZM246.862 33.4248C234.439 33.4248 224.32 43.2077 224.32 55.2179C224.32 67.2281 234.439 77.011 246.862 77.011C259.284 77.011 269.403 67.2281 269.403 55.2179C269.403 43.2077 259.299 33.4248 246.862 33.4248Z" fill="#051D43"/>
</svg>
